<svg aria-hidden="true" style="position: absolute; width: 0; height: 0; overflow: hidden;" version="1.1" xmlns="http://www.w3.org/2000/svg" xmlns:xlink="http://www.w3.org/1999/xlink">
<defs>
<symbol id="group-5" viewBox="0 0 16 16">
<title>group-5</title>
<path fill="#1dabbb" style="fill: var(--color3, #1dabbb)" d="M3.31 0h9.379c1.828 0 3.31 1.482 3.31 3.31v9.379c0 1.828-1.482 3.31-3.31 3.31h-9.379c-1.828 0-3.31-1.482-3.31-3.31v-9.379c0-1.828 1.482-3.31 3.31-3.31z"></path>
<path fill="#fff" style="fill: var(--color2, #fff)" d="M12.823 7.306h-0.345v-0.323c0-2.329-1.885-4.224-4.202-4.224s-4.202 1.895-4.202 4.224v0.323h-0.345c-0.535 0-0.97 0.435-0.97 0.97v1.94c0 0.535 0.435 0.969 0.97 0.969h0.401c0.134 0.377 0.493 0.647 0.914 0.647 0.535 0 0.969-0.435 0.969-0.97v-3.232c0-0.535-0.435-0.97-0.969-0.97-0.11 0-0.215 0.019-0.313 0.052 0.138-1.847 1.676-3.307 3.546-3.307s3.407 1.46 3.546 3.306c-0.098-0.034-0.204-0.052-0.313-0.052-0.535 0-0.969 0.435-0.969 0.97v3.233c0 0.535 0.435 0.969 0.969 0.969 0.114 0 0.222-0.019 0.323-0.055v0.4c0 0.178-0.145 0.323-0.323 0.323h-2.318c-0.134-0.376-0.493-0.647-0.914-0.647-0.535 0-0.97 0.435-0.97 0.97s0.435 0.97 0.97 0.97c0.422 0 0.781-0.27 0.914-0.647h2.318c0.535 0 0.97-0.435 0.97-0.97v-0.991h0.345c0.535 0 0.97-0.435 0.97-0.969v-1.94c0-0.535-0.435-0.97-0.97-0.97zM8.276 13.146c-0.178 0-0.323-0.145-0.323-0.323s0.145-0.323 0.323-0.323c0.178 0 0.323 0.145 0.323 0.323s-0.145 0.323-0.323 0.323z"></path>
</symbol>
<symbol id="ic-add-user-29-px" viewBox="0 0 32 32">
<title>ic-add-user-29-px</title>
<path fill="#60c9f9" style="fill: var(--color3, #60c9f9)" d="M6.621 0h18.759c3.657 0 6.621 2.964 6.621 6.621v18.759c0 3.657-2.964 6.621-6.621 6.621h-18.759c-3.656 0-6.621-2.964-6.621-6.621v-18.759c0-3.656 2.964-6.621 6.621-6.621z"></path>
<path fill="#fff" style="fill: var(--color2, #fff)" d="M17.051 19.318l-0.651-0.374c-0.286-0.164-0.463-0.478-0.463-0.82v-1.17c0.225-0.31 0.869-1.277 1.177-2.559 0.318-0.268 0.503-0.669 0.503-1.099v-1.414c0-0.341-0.121-0.671-0.336-0.928v-1.881c0.019-0.194 0.092-1.352-0.703-2.307-0.69-0.828-1.811-1.248-3.33-1.248s-2.64 0.42-3.33 1.248c-0.796 0.955-0.722 2.113-0.703 2.307v1.881c-0.215 0.257-0.336 0.588-0.336 0.928v1.414c0 0.43 0.186 0.831 0.503 1.099 0.308 1.282 0.952 2.249 1.177 2.559v1.17c0 0.342-0.178 0.657-0.463 0.82l-2.999 1.721c-0.975 0.559-1.58 1.632-1.58 2.8v1.499c0 0.195 0.15 0.354 0.336 0.354h11.438c-0.636-0.888-1.018-1.988-1.018-3.182 0-1.036 0.288-2 0.778-2.817z"></path>
<path fill="#fff" style="fill: var(--color2, #fff)" d="M21.824 17.165c-2.569 0-4.659 2.090-4.659 4.659s2.090 4.659 4.659 4.659c2.569 0 4.659-2.090 4.659-4.659s-2.090-4.659-4.659-4.659zM23.974 22.182h-1.792v1.792c0 0.198-0.161 0.358-0.358 0.358s-0.358-0.161-0.358-0.358v-1.792h-1.792c-0.198 0-0.358-0.161-0.358-0.358s0.161-0.358 0.358-0.358h1.792v-1.792c0-0.198 0.161-0.358 0.358-0.358s0.358 0.161 0.358 0.358v1.792h1.792c0.198 0 0.358 0.161 0.358 0.358s-0.161 0.358-0.358 0.358z"></path>
</symbol>
<symbol id="ic-bus-29-px" viewBox="0 0 16 16">
<title>ic-bus-29-px</title>
<path fill="#0cc5cd" style="fill: var(--color8, #0cc5cd)" d="M3.31 0h9.379c1.828 0 3.31 1.482 3.31 3.31v9.379c0 1.828-1.482 3.31-3.31 3.31h-9.379c-1.828 0-3.31-1.482-3.31-3.31v-9.379c0-1.828 1.482-3.31 3.31-3.31z"></path>
<path fill="#fff" style="fill: var(--color2, #fff)" d="M12.608 5.324c-0.090-0.838-0.234-1.49-0.462-1.746-0.94-1.054-7.523-1.131-8.27 0-0.183 0.277-0.311 0.927-0.397 1.747-0.278 0.031-0.494 0.253-0.494 0.524v1.026c0 0.228 0.153 0.42 0.366 0.495-0.051 1.617-0.009 3.303 0.066 4.141 0 0.647 0.459 0.54 0.459 0.54h0.43v0.698c0 0.278 0.301 0.502 0.673 0.502s0.673-0.225 0.673-0.502v-0.698h5.006v0.698c0 0.278 0.301 0.502 0.673 0.502s0.673-0.225 0.673-0.502v-0.698h0.141s0.541 0.070 0.575-0.235c0-0.836 0.055-2.69 0.010-4.439 0.226-0.067 0.392-0.265 0.392-0.503v-1.026c0-0.278-0.226-0.503-0.514-0.525zM5.483 3.729h5.055v0.724h-5.055v-0.725zM5.556 11.228c-0.397 0-0.718-0.305-0.718-0.681s0.322-0.68 0.718-0.68c0.397 0 0.719 0.305 0.719 0.68s-0.322 0.681-0.719 0.681zM10.511 11.228c-0.397 0-0.719-0.305-0.719-0.681s0.322-0.68 0.719-0.68c0.397 0 0.718 0.305 0.718 0.68s-0.321 0.681-0.718 0.681zM11.425 8.248h-6.828v-3.393h6.828v3.393z"></path>
</symbol>
<symbol id="ic-calendar-29-px" viewBox="0 0 16 16">
<title>ic-calendar-29-px</title>
<path fill="#894ec0" style="fill: var(--color1, #894ec0)" d="M3.31 0h9.379c1.828 0 3.31 1.482 3.31 3.31v9.379c0 1.828-1.482 3.31-3.31 3.31h-9.379c-1.828 0-3.31-1.482-3.31-3.31v-9.379c0-1.828 1.482-3.31 3.31-3.31z"></path>
<path fill="#fff" style="fill: var(--color2, #fff)" d="M9.809 3.334c0.178 0 0.296 0.118 0.296 0.295v0.296h1.181c0.828 0 1.477 0.65 1.477 1.477v5.317c0 0.827-0.65 1.477-1.477 1.477h-6.498c-0.828 0-1.477-0.65-1.477-1.477v-5.318c0-0.828 0.65-1.477 1.477-1.477h1.181v-0.295c0-0.177 0.119-0.295 0.296-0.295s0.295 0.118 0.295 0.295v0.296h2.954v-0.296c0-0.177 0.118-0.295 0.295-0.295zM4.964 9.714c-0.118 0.119-0.177 0.237-0.177 0.414 0 0.118 0.059 0.295 0.177 0.414s0.236 0.177 0.414 0.177c0.177 0 0.295-0.058 0.414-0.177 0.118-0.119 0.177-0.296 0.177-0.414s-0.059-0.295-0.177-0.414c-0.237-0.236-0.591-0.236-0.828 0zM6.737 9.714c-0.118 0.119-0.177 0.296-0.177 0.414s0.058 0.295 0.177 0.414c0.119 0.118 0.237 0.177 0.414 0.177s0.295-0.058 0.414-0.177c0.118-0.119 0.177-0.296 0.177-0.414s-0.058-0.295-0.177-0.414c-0.237-0.236-0.591-0.236-0.828 0zM8.509 9.714c-0.118 0.119-0.178 0.296-0.178 0.414s0.060 0.295 0.178 0.414c0.118 0.118 0.236 0.177 0.414 0.177 0.177 0 0.295-0.058 0.413-0.177s0.177-0.237 0.177-0.414-0.059-0.295-0.177-0.414c-0.237-0.236-0.591-0.236-0.828 0zM10.281 9.714c-0.118 0.119-0.177 0.237-0.177 0.414 0 0.118 0.059 0.295 0.177 0.414s0.236 0.177 0.414 0.177c0.177 0 0.295-0.058 0.414-0.177 0.118-0.119 0.177-0.296 0.177-0.414s-0.059-0.295-0.177-0.414c-0.237-0.236-0.591-0.236-0.828 0zM4.964 7.942c-0.118 0.118-0.177 0.236-0.177 0.414 0 0.177 0.059 0.295 0.177 0.414 0.118 0.118 0.236 0.177 0.414 0.177 0.177 0 0.295-0.059 0.414-0.177 0.118-0.119 0.177-0.296 0.177-0.414s-0.059-0.296-0.177-0.414c-0.237-0.236-0.591-0.236-0.828 0zM6.737 7.942c-0.118 0.118-0.177 0.295-0.177 0.414s0.058 0.295 0.177 0.414c0.119 0.118 0.237 0.177 0.414 0.177s0.295-0.059 0.414-0.177c0.118-0.119 0.177-0.296 0.177-0.414s-0.058-0.296-0.177-0.414c-0.237-0.236-0.591-0.236-0.828 0zM8.509 7.942c-0.118 0.118-0.178 0.295-0.178 0.414s0.060 0.295 0.178 0.414c0.118 0.118 0.236 0.177 0.414 0.177 0.177 0 0.295-0.059 0.413-0.177 0.118-0.119 0.177-0.237 0.177-0.414 0-0.119-0.059-0.296-0.177-0.414-0.237-0.236-0.591-0.236-0.828 0zM10.281 7.942c-0.118 0.118-0.177 0.295-0.177 0.414s0.059 0.295 0.177 0.414c0.118 0.118 0.236 0.177 0.414 0.177 0.177 0 0.295-0.059 0.414-0.177 0.118-0.119 0.177-0.237 0.177-0.414 0-0.119-0.059-0.296-0.177-0.414-0.237-0.236-0.591-0.236-0.828 0zM5.969 4.516h-1.181c-0.473 0-0.886 0.414-0.886 0.886v0.886h8.27v-0.887c0-0.473-0.413-0.886-0.886-0.886h-1.181v0.295c0 0.177-0.118 0.295-0.296 0.295-0.177 0-0.295-0.118-0.295-0.295v-0.295h-2.954v0.295c0 0.177-0.118 0.295-0.295 0.295s-0.296-0.118-0.296-0.295v-0.295z"></path>
</symbol>
<symbol id="ic-car-29-px" viewBox="0 0 16 16">
<title>ic-car-29-px</title>
<path fill="#e14b4b" style="fill: var(--color9, #e14b4b)" d="M3.31 0h9.379c1.828 0 3.31 1.482 3.31 3.31v9.379c0 1.828-1.482 3.31-3.31 3.31h-9.379c-1.828 0-3.31-1.482-3.31-3.31v-9.379c0-1.828 1.482-3.31 3.31-3.31z"></path>
<path fill="#fff" style="fill: var(--color2, #fff)" d="M13.233 8.692c0-0.206-0.047-0.403-0.131-0.583-0.009-0.046-0.019-0.092-0.031-0.138l-0.91-2.254-0.006-0.020c-0.318-0.948-0.771-1.825-1.92-1.825h-4.392c-1.176 0-1.592 0.899-1.918 1.82l-0.952 2.26c-0.138 0.221-0.216 0.473-0.216 0.741v0.701c0 0.109 0.013 0.215 0.037 0.317-0.024 0.062-0.037 0.128-0.037 0.199v2.087c0 0.306 0.248 0.554 0.554 0.554h1.15c0.306 0 0.554-0.248 0.554-0.554v-1.044h6.025v1.044c0 0.306 0.248 0.554 0.554 0.554h1.084c0.306 0 0.554-0.248 0.554-0.554v-2.087c0-0.070-0.014-0.137-0.037-0.199 0.024-0.102 0.037-0.208 0.037-0.317v-0.701zM4.601 5.917c0.362-1.022 0.654-1.334 1.243-1.334h4.391c0.585 0 0.91 0.348 1.241 1.33l0.664 1.346c-0.217-0.081-0.455-0.125-0.706-0.125h-6.877c-0.226 0-0.441 0.036-0.64 0.102l0.685-1.319zM5.172 9.66h-1.214c-0.218 0-0.395-0.177-0.395-0.396s0.177-0.396 0.396-0.396h1.213c0.218 0 0.396 0.177 0.396 0.396s-0.177 0.396-0.396 0.396zM9.458 9.581h-2.822c-0.138 0-0.25-0.113-0.25-0.25s0.112-0.251 0.25-0.251h2.822c0.138 0 0.25 0.113 0.25 0.251s-0.112 0.25-0.25 0.25zM12.002 9.66h-1.213c-0.219 0-0.396-0.177-0.396-0.396s0.178-0.396 0.396-0.396h1.213c0.219 0 0.396 0.177 0.396 0.396s-0.177 0.396-0.396 0.396z"></path>
</symbol>
<symbol id="ic-channels-29-px" viewBox="0 0 16 16">
<title>ic-channels-29-px</title>
<path fill="#f1884b" style="fill: var(--color5, #f1884b)" d="M3.31 0h9.379c1.828 0 3.31 1.482 3.31 3.31v9.379c0 1.828-1.482 3.31-3.31 3.31h-9.379c-1.828 0-3.31-1.482-3.31-3.31v-9.379c0-1.828 1.482-3.31 3.31-3.31z"></path>
<path fill="#fff" style="fill: var(--color2, #fff)" d="M4.87 12.256c-0.628 0-1.138-0.507-1.138-1.132 0-0.626 0.509-1.133 1.138-1.133s1.138 0.506 1.138 1.133c0 0.625-0.509 1.132-1.138 1.132zM7.724 12.221c0-1.032-0.393-2.052-1.147-2.806-0.753-0.754-1.766-1.148-2.798-1.148v-1.634c3.095 0 5.587 2.493 5.587 5.588h-1.642zM10.625 12.221c0-3.752-3.094-6.851-6.846-6.851v-1.635c4.69 0 8.489 3.797 8.489 8.487h-1.643z"></path>
</symbol>
<symbol id="ic-chat-29-px" viewBox="0 0 16 16">
<title>ic-chat-29-px</title>
<path fill="#3ed057" style="fill: var(--color16, #3ed057)" d="M3.31 0h9.379c1.828 0 3.31 1.482 3.31 3.31v9.379c0 1.828-1.482 3.31-3.31 3.31h-9.379c-1.828 0-3.31-1.482-3.31-3.31v-9.379c0-1.828 1.482-3.31 3.31-3.31z"></path>
<path fill="#fff" style="fill: var(--color2, #fff)" d="M10.124 3.875h-6.161c-0.664 0-1.204 0.541-1.204 1.205v5.399c0 0.256 0.289 0.4 0.493 0.254l1.716-1.224c0.143-0.103 0.313-0.157 0.49-0.157h3.774c0.664 0 1.205-0.54 1.205-1.204v-3.959c0-0.172-0.14-0.312-0.312-0.312zM8.608 7.655h-3.606c-0.172 0-0.312-0.14-0.312-0.312s0.14-0.312 0.312-0.312h3.606c0.173 0 0.312 0.14 0.312 0.312s-0.14 0.312-0.312 0.312zM8.608 6.199h-3.606c-0.172 0-0.312-0.139-0.312-0.312s0.14-0.312 0.312-0.312h3.606c0.173 0 0.312 0.14 0.312 0.312s-0.14 0.312-0.312 0.312z"></path>
<path fill="#fff" style="fill: var(--color2, #fff)" d="M13.411 7.5v5.399c0 0.254-0.288 0.401-0.493 0.254l-1.716-1.224c-0.144-0.103-0.313-0.157-0.49-0.157h-3.774c-0.664 0-1.204-0.541-1.204-1.205v-0.591h3.498c1.009 0 1.829-0.82 1.829-1.829v-1.852h1.145c0.664 0 1.205 0.541 1.205 1.205z"></path>
</symbol>
<symbol id="ic-explore-29-px" viewBox="0 0 32 32">
<title>ic-explore-29-px</title>
<path fill="#585bd3" style="fill: var(--color9, #585bd3)" d="M6.621 0h18.759c3.657 0 6.621 2.964 6.621 6.621v18.759c0 3.657-2.964 6.621-6.621 6.621h-18.759c-3.656 0-6.621-2.964-6.621-6.621v-18.759c0-3.656 2.964-6.621 6.621-6.621z"></path>
<path fill="none" stroke="#fff" style="stroke: var(--color2, #fff)" stroke-linejoin="round" stroke-linecap="round" stroke-miterlimit="4" stroke-width="1.1034" d="M25.623 15.57c0 5.552-4.501 10.053-10.053 10.053s-10.053-4.501-10.053-10.053c0-5.552 4.501-10.053 10.053-10.053s10.053 4.501 10.053 10.053z"></path>
<path fill="#fff" style="fill: var(--color2, #fff)" d="M20.754 10.759l-3.751 6.244-6.244 3.751 3.753-6.242z"></path>
</symbol>
<symbol id="ic-gallery-29-px" viewBox="0 0 16 16">
<title>ic-gallery-29-px</title>
<path fill="#21c9a9" style="fill: var(--color11, #21c9a9)" d="M3.31 0h9.379c1.828 0 3.31 1.482 3.31 3.31v9.379c0 1.828-1.482 3.31-3.31 3.31h-9.379c-1.828 0-3.31-1.482-3.31-3.31v-9.379c0-1.828 1.482-3.31 3.31-3.31z"></path>
<path fill="#fff" style="fill: var(--color2, #fff)" d="M11.457 3.862h-6.983c-0.642 0-1.164 0.463-1.164 1.034v6.207c0 0.57 0.522 1.034 1.164 1.034h6.983c0.642 0 1.164-0.463 1.164-1.034v-6.207c0-0.57-0.522-1.034-1.164-1.034zM4.474 4.552h6.983c0.214 0 0.388 0.154 0.388 0.345v2.444l-1.278-1.135c-0.151-0.135-0.397-0.135-0.548 0l-2.732 2.428-0.986-0.877c-0.152-0.135-0.397-0.135-0.548 0l-1.666 1.48v-4.34c0-0.19 0.174-0.345 0.388-0.345z"></path>
<path fill="#fff" style="fill: var(--color2, #fff)" d="M6.414 5.931c0 0.381-0.348 0.69-0.776 0.69s-0.776-0.309-0.776-0.69 0.348-0.69 0.777-0.69c0.428 0 0.776 0.309 0.776 0.69z"></path>
</symbol>
<symbol id="ic-groups-29-px" viewBox="0 0 16 16">
<title>ic-groups-29-px</title>
<path fill="#007aff" style="fill: var(--color18, #007aff)" d="M3.31 0h9.379c1.828 0 3.31 1.482 3.31 3.31v9.379c0 1.828-1.482 3.31-3.31 3.31h-9.379c-1.828 0-3.31-1.482-3.31-3.31v-9.379c0-1.828 1.482-3.31 3.31-3.31z"></path>
<path fill="#fff" style="fill: var(--color2, #fff); stroke: var(--color2, #fff)" stroke="#fff" stroke-linejoin="miter" stroke-linecap="round" stroke-miterlimit="4" stroke-width="0.4855" d="M8.252 10.339c-0.024-0.388-0.024-0.655-0.024-1.020 0.17-0.097 0.486-0.68 0.558-1.19 0.146 0 0.364-0.146 0.413-0.68 0.024-0.291-0.097-0.461-0.194-0.51 0.243-0.68 0.704-2.792-0.85-3.010-0.17-0.291-0.583-0.437-1.117-0.437-2.161 0.049-2.403 1.626-1.942 3.447-0.073 0.049-0.218 0.218-0.194 0.51 0.073 0.534 0.291 0.68 0.413 0.68 0.049 0.51 0.388 1.092 0.558 1.19 0 0.364 0.024 0.631-0.024 1.020-0.388 1.141-3.277 0.825-3.399 3.034h9.225c-0.121-2.209-2.986-1.894-3.423-3.034z"></path>
<path fill="none" stroke="#fff" style="stroke: var(--color2, #fff)" stroke-linejoin="miter" stroke-linecap="round" stroke-miterlimit="4" stroke-width="0.4855" d="M11.043 12.063h3.059c-0.121-1.845-2.525-1.578-2.865-2.549-0.024-0.34-0.024-0.558-0.024-0.85 0.146-0.073 0.413-0.583 0.461-0.995 0.121 0 0.291-0.121 0.364-0.583 0.024-0.243-0.097-0.388-0.17-0.413 0.194-0.583 0.583-2.355-0.728-2.525-0.146-0.243-0.486-0.364-0.947-0.364-0.583 0-0.995 0.146-1.262 0.388"></path>
</symbol>
<symbol id="ic-help-29-px" viewBox="0 0 32 32">
<title>ic-help-29-px</title>
<path fill="#f8cb2f" style="fill: var(--color12, #f8cb2f)" d="M6.621 0h18.759c3.657 0 6.621 2.964 6.621 6.621v18.759c0 3.657-2.964 6.621-6.621 6.621h-18.759c-3.656 0-6.621-2.964-6.621-6.621v-18.759c0-3.656 2.964-6.621 6.621-6.621z"></path>
<path fill="#fff" style="fill: var(--color2, #fff)" d="M18.008 22.707l1.502 0.077v2.029h-6.268v-1.928l0.87-0.076c0.474-0.052 0.763-0.203 0.763-0.812v-7.052c0-0.56-0.158-0.738-0.659-0.738l-0.921-0.050v-2.105h4.713v10.655zM16.165 6.621c1.159 0 2.002 0.839 2.002 1.904 0 1.067-0.843 1.853-2.029 1.853-1.211 0-2.002-0.787-2.002-1.853s0.792-1.904 2.029-1.904z"></path>
</symbol>
<symbol id="ic-list-29-px" viewBox="0 0 16 16">
<title>ic-list-29-px</title>
<path fill="#ebb61b" style="fill: var(--color5, #ebb61b)" d="M3.31 0h9.379c1.828 0 3.31 1.482 3.31 3.31v9.379c0 1.828-1.482 3.31-3.31 3.31h-9.379c-1.828 0-3.31-1.482-3.31-3.31v-9.379c0-1.828 1.482-3.31 3.31-3.31z"></path>
<path fill="#fff" style="fill: var(--color2, #fff)" d="M4.671 6.007c0.744 0 1.348-0.605 1.348-1.348s-0.605-1.348-1.348-1.348c-0.744 0-1.348 0.605-1.348 1.348 0.002 0.744 0.607 1.348 1.348 1.348zM4.671 9.532c0.744 0 1.348-0.605 1.348-1.348s-0.605-1.348-1.348-1.348c-0.744 0-1.348 0.605-1.348 1.348 0.002 0.744 0.607 1.348 1.348 1.348zM4.671 13.056c0.744 0 1.348-0.605 1.348-1.348s-0.605-1.348-1.348-1.348-1.348 0.604-1.348 1.348c0.002 0.744 0.607 1.348 1.348 1.348zM6.811 4.595c0 0.189 0.153 0.342 0.342 0.342h4.793c0.189 0 0.342-0.153 0.342-0.342s-0.153-0.342-0.342-0.342h-4.793c-0.189 0-0.342 0.153-0.342 0.342zM7.087 8.523h4.793c0.189 0 0.342-0.153 0.342-0.34 0-0.189-0.153-0.342-0.342-0.342h-4.793c-0.189 0-0.34 0.153-0.34 0.342s0.151 0.34 0.34 0.34zM7.087 12.050h4.793c0.189 0 0.342-0.153 0.342-0.34s-0.153-0.342-0.342-0.342h-4.793c-0.189 0-0.34 0.153-0.34 0.342s0.151 0.34 0.34 0.34z"></path>
</symbol>
<symbol id="ic-location-29-px" viewBox="0 0 16 16">
<title>ic-location-29-px</title>
<path fill="#3e3bed" style="fill: var(--color14, #3e3bed)" d="M3.31 0h9.379c1.828 0 3.31 1.482 3.31 3.31v9.379c0 1.828-1.482 3.31-3.31 3.31h-9.379c-1.828 0-3.31-1.482-3.31-3.31v-9.379c0-1.828 1.482-3.31 3.31-3.31z"></path>
<path fill="#fff" style="fill: var(--color2, #fff)" d="M8.046 2.759c1.386 0 2.632 0.653 3.418 1.791 0.783 1.132 0.963 2.566 0.483 3.834-0.127 0.343-0.33 0.679-0.604 0.995l-3.023 3.552c-0.069 0.081-0.169 0.127-0.274 0.127s-0.206-0.046-0.274-0.127l-3.025-3.553c-0.272-0.314-0.476-0.651-0.604-0.996-0.479-1.267-0.298-2.7 0.484-3.832 0.786-1.138 2.031-1.791 3.418-1.791zM8.046 4.895c-1.112 0-2.017 0.905-2.017 2.017s0.905 2.017 2.017 2.017c1.112 0 2.017-0.905 2.017-2.017s-0.905-2.017-2.017-2.017zM8.046 5.615c0.714 0 1.297 0.582 1.297 1.297s-0.582 1.297-1.297 1.297c-0.715 0-1.297-0.582-1.297-1.297s0.582-1.297 1.297-1.297z"></path>
</symbol>
<symbol id="ic-message-29-px" viewBox="0 0 16 16">
<title>ic-message-29-px</title>
<path fill="#b03446" style="fill: var(--color17, #b03446)" d="M3.31 0h9.379c1.828 0 3.31 1.482 3.31 3.31v9.379c0 1.828-1.482 3.31-3.31 3.31h-9.379c-1.828 0-3.31-1.482-3.31-3.31v-9.379c0-1.828 1.482-3.31 3.31-3.31z"></path>
<path fill="#fff" style="fill: var(--color2, #fff); stroke: var(--color2, #fff)" stroke="#fff" stroke-linejoin="miter" stroke-linecap="butt" stroke-miterlimit="4" stroke-width="0.6621" d="M8.276 4.414c-2.438 0-4.414 1.553-4.414 3.468 0 0.906 0.443 1.733 1.169 2.351-0.028 0.602-0.153 1.412-0.594 1.83 0.843 0 1.706-0.555 2.218-0.954 0.502 0.156 1.049 0.242 1.621 0.242 2.438 0 4.414-1.553 4.414-3.468s-1.976-3.468-4.414-3.468z"></path>
</symbol>
<symbol id="ic-news-29-px" viewBox="0 0 16 16">
<title>ic-news-29-px</title>
<path fill="#4390ea" style="fill: var(--color10, #4390ea)" d="M3.31 0h9.379c1.828 0 3.31 1.482 3.31 3.31v9.379c0 1.828-1.482 3.31-3.31 3.31h-9.379c-1.828 0-3.31-1.482-3.31-3.31v-9.379c0-1.828 1.482-3.31 3.31-3.31z"></path>
<path fill="#fff" style="fill: var(--color2, #fff)" d="M10.725 11.698v-8.092c0-0.16-0.13-0.29-0.291-0.29h-6.834c-0.16 0-0.29 0.13-0.29 0.29v7.511c0 0.801 0.651 1.452 1.452 1.452h6.253c-0.182-0.243-0.291-0.545-0.291-0.871zM4.859 8.891h0.929c0.16 0 0.291 0.13 0.291 0.291s-0.13 0.29-0.291 0.29h-0.929c-0.16 0-0.29-0.13-0.29-0.29s0.13-0.291 0.29-0.291zM4.569 7.943c0-0.16 0.13-0.29 0.29-0.29h0.929c0.16 0 0.291 0.13 0.291 0.29s-0.13 0.29-0.291 0.29h-0.929c-0.16 0-0.29-0.13-0.29-0.29zM9.196 11.176h-4.337c-0.16 0-0.29-0.13-0.29-0.291s0.13-0.29 0.29-0.29h4.337c0.16 0 0.29 0.13 0.29 0.29s-0.13 0.291-0.29 0.291zM9.486 9.646c0 0.16-0.13 0.29-0.29 0.29h-2.168c-0.16 0-0.29-0.13-0.29-0.29v-2.168c0-0.16 0.13-0.29 0.29-0.29h2.168c0.16 0 0.29 0.13 0.29 0.29v2.168zM9.196 6.529h-4.337c-0.16 0-0.29-0.13-0.29-0.29s0.13-0.29 0.29-0.29h4.337c0.16 0 0.29 0.13 0.29 0.29s-0.13 0.291-0.29 0.291zM9.196 5.29h-4.337c-0.16 0-0.29-0.13-0.29-0.29s0.13-0.291 0.29-0.291h4.337c0.16 0 0.29 0.13 0.29 0.291s-0.13 0.29-0.29 0.29z"></path>
<path fill="#fff" style="fill: var(--color2, #fff)" d="M7.318 7.768h1.587v1.587h-1.587zM12.932 5.33h-1.627c0 6.579-0.001 6.369 0.002 6.369 0.025 0.406 0.302 0.743 0.676 0.857 0.599 0.183 1.213-0.25 1.238-0.878 0.002 0 0.001 0.145 0.001-6.058 0-0.16-0.13-0.29-0.29-0.29z"></path>
</symbol>
<symbol id="ic-phone-29-px" viewBox="0 0 16 16">
<title>ic-phone-29-px</title>
<path fill="#57cd76" style="fill: var(--color3, #57cd76)" d="M3.31 0h9.379c1.828 0 3.31 1.482 3.31 3.31v9.379c0 1.828-1.482 3.31-3.31 3.31h-9.379c-1.828 0-3.31-1.482-3.31-3.31v-9.379c0-1.828 1.482-3.31 3.31-3.31z"></path>
<path fill="#fff" style="fill: var(--color2, #fff)" d="M11.914 9.451c-0.573 0-1.135-0.090-1.668-0.266-0.261-0.089-0.582-0.007-0.742 0.156l-1.052 0.794c-1.219-0.651-1.971-1.402-2.614-2.614l0.771-1.024c0.2-0.2 0.272-0.492 0.186-0.766-0.177-0.536-0.266-1.098-0.266-1.671 0-0.414-0.337-0.751-0.75-0.751h-1.719c-0.414 0-0.75 0.337-0.75 0.75 0 4.745 3.86 8.605 8.604 8.605 0.414 0 0.75-0.337 0.75-0.75v-1.714c0-0.414-0.337-0.75-0.75-0.75z"></path>
</symbol>
<symbol id="ic-qr-code-29-px" viewBox="0 0 16 16">
<title>ic-qr-code-29-px</title>
<path fill="#1275e9" style="fill: var(--color19, #1275e9)" d="M3.31 0h9.379c1.828 0 3.31 1.482 3.31 3.31v9.379c0 1.828-1.482 3.31-3.31 3.31h-9.379c-1.828 0-3.31-1.482-3.31-3.31v-9.379c0-1.828 1.482-3.31 3.31-3.31z"></path>
<path fill="#fff" style="fill: var(--color2, #fff)" d="M6.242 3.31h-2.931v2.931h2.931v-2.931zM5.655 5.655h-1.759v-1.759h1.759v1.759z"></path>
<path fill="#fff" style="fill: var(--color2, #fff)" d="M4.483 4.483h0.586v0.586h-0.586z"></path>
<path fill="#fff" style="fill: var(--color2, #fff)" d="M9.759 3.31v2.931h2.931v-2.931h-2.931zM12.104 5.655h-1.759v-1.759h1.759v1.759z"></path>
<path fill="#fff" style="fill: var(--color2, #fff)" d="M10.931 4.483h0.586v0.586h-0.586z"></path>
<path fill="#fff" style="fill: var(--color2, #fff)" d="M3.31 12.69h2.931v-2.931h-2.931v2.931zM3.897 10.345h1.758v1.759h-1.759v-1.759z"></path>
<path fill="#fff" style="fill: var(--color2, #fff)" d="M4.483 10.931h0.586v0.586h-0.586zM8 3.31h1.172v0.586h-1.172zM8 5.655h0.586v-0.586h0.586v-0.586h-1.758v-0.586h-0.586v1.172h1.172zM6.828 5.655h0.586v0.586h-0.586zM9.172 6.242h-0.586v0.586h-1.759v0.586h2.345zM3.897 8.586h0.586v-0.586h-0.586v-1.172h-0.586v2.345h0.586zM4.483 6.828h0.586v0.586h-0.586z"></path>
<path fill="#fff" style="fill: var(--color2, #fff)" d="M6.828 9.172h1.172v-0.586h-0.586v-0.586h-1.172v-1.172h-0.586v1.172h-0.586v1.172h0.586v-0.586h1.172zM8.586 8h0.586v1.172h-0.586zM8.586 9.759h-1.759v0.586h1.172v1.759h-1.172v0.586h1.759v-0.586h1.172v-0.586h-1.172z"></path>
<path fill="#fff" style="fill: var(--color2, #fff)" d="M6.828 10.931h0.586v0.586h-0.586zM9.172 9.759h0.586v1.172h-0.586zM12.104 10.931h-1.759v1.758h0.586v-1.172h1.172z"></path>
<path fill="#fff" style="fill: var(--color2, #fff)" d="M11.517 12.104h1.172v0.586h-1.172zM12.104 9.759h0.586v0.586h-0.586zM10.345 10.345h0.586v-1.758h-1.172v0.586h0.586zM11.517 7.414h-0.586v-0.586h-0.586v0.586h-0.586v0.586h2.345v-0.586h0.586v-0.586h-1.172zM11.517 8.586h1.172v0.586h-1.172z"></path>
</symbol>
<symbol id="ic-settings-29-px" viewBox="0 0 32 32">
<title>ic-settings-29-px</title>
<path fill="#8f8f93" style="fill: var(--color19, #8f8f93)" d="M6.621 0h18.759c3.657 0 6.621 2.964 6.621 6.621v18.759c0 3.657-2.964 6.621-6.621 6.621h-18.759c-3.656 0-6.621-2.964-6.621-6.621v-18.759c0-3.656 2.964-6.621 6.621-6.621z"></path>
<path fill="#fff" style="fill: var(--color2, #fff)" d="M23.179 12.069c-1.439-2.122-3.87-3.517-6.627-3.517s-5.188 1.395-6.627 3.517v0l6.092 3.517c0.158-0.088 0.341-0.138 0.535-0.138s0.376 0.050 0.535 0.138l6.092-3.517zM9.37 13.023c-0.524 1.064-0.818 2.262-0.818 3.529 0 4.233 3.287 7.698 7.448 7.981v-7.025c-0.33-0.191-0.552-0.547-0.552-0.956 0-0.007 0-0.013 0-0.020l-6.078-3.509zM15.642 25.61l-1.458 2.846-0.258-3.186c-0.588-0.177-1.151-0.412-1.682-0.697l-2.435 2.071 0.982-3.044c-0.47-0.385-0.901-0.816-1.286-1.286l-3.044 0.982 2.071-2.435c-0.286-0.531-0.521-1.094-0.697-1.682l-3.186-0.258 2.846-1.458c-0.030-0.299-0.045-0.603-0.045-0.91s0.015-0.611 0.045-0.91l-2.846-1.458 3.186-0.258c0.177-0.588 0.412-1.151 0.697-1.682l-2.071-2.435 3.044 0.982c0.385-0.47 0.816-0.901 1.286-1.286l-0.982-3.044 2.435 2.071c0.531-0.286 1.094-0.521 1.682-0.697l0.258-3.186 1.458 2.846c0.299-0.030 0.603-0.045 0.91-0.045s0.611 0.015 0.91 0.045l1.458-2.846 0.258 3.186c0.588 0.177 1.151 0.412 1.682 0.697l2.435-2.071-0.982 3.044c0.47 0.385 0.901 0.816 1.286 1.286l3.044-0.982-2.071 2.435c0.286 0.531 0.521 1.094 0.697 1.682l3.186 0.258-2.846 1.458c0.030 0.299 0.045 0.603 0.045 0.91s-0.015 0.611-0.045 0.91l2.846 1.458-3.186 0.258c-0.177 0.588-0.412 1.151-0.697 1.682l2.071 2.435-3.044-0.982c-0.385 0.47-0.816 0.901-1.286 1.286l0.982 3.044-2.435-2.071c-0.531 0.286-1.094 0.521-1.682 0.697l-0.258 3.186-1.458-2.846c-0.299 0.030-0.603 0.045-0.91 0.045s-0.611-0.015-0.91-0.045v0z"></path>
<path fill="#8f8f93" style="fill: var(--color19, #8f8f93)" d="M23.733 13.023c0.524 1.064 0.818 2.262 0.818 3.529 0 4.233-3.287 7.698-7.448 7.981v0-7.025c0.33-0.191 0.552-0.547 0.552-0.956 0-0.007-0-0.013-0-0.020l6.078-3.509z"></path>
</symbol>
<symbol id="ic-star-29-px" viewBox="0 0 16 16">
<title>ic-star-29-px</title>
<path fill="#df4f85" style="fill: var(--color3, #df4f85)" d="M3.31 0h9.379c1.828 0 3.31 1.482 3.31 3.31v9.379c0 1.828-1.482 3.31-3.31 3.31h-9.379c-1.828 0-3.31-1.482-3.31-3.31v-9.379c0-1.828 1.482-3.31 3.31-3.31z"></path>
<path fill="#fff" style="fill: var(--color2, #fff)" d="M12.559 6.717c0-0.136-0.104-0.221-0.311-0.255l-2.791-0.404-1.25-2.52c-0.071-0.152-0.162-0.227-0.273-0.227s-0.202 0.076-0.273 0.227l-1.25 2.52-2.791 0.404c-0.207 0.033-0.311 0.119-0.311 0.255 0 0.078 0.046 0.167 0.139 0.266l2.023 1.961-0.478 2.77c-0.008 0.052-0.011 0.089-0.011 0.111 0 0.077 0.019 0.143 0.058 0.196 0.039 0.054 0.097 0.081 0.175 0.081 0.066 0 0.141-0.022 0.222-0.066l2.495-1.308 2.495 1.308c0.078 0.044 0.152 0.066 0.222 0.066 0.152 0 0.228-0.092 0.228-0.277 0-0.048-0.002-0.085-0.006-0.11l-0.478-2.77 2.018-1.961c0.097-0.097 0.145-0.185 0.145-0.266z"></path>
</symbol>
<symbol id="ic-sticker-29-px" viewBox="0 0 32 32">
<title>ic-sticker-29-px</title>
<path fill="#f69527" style="fill: var(--color21, #f69527)" d="M6.621 0h18.759c3.657 0 6.621 2.964 6.621 6.621v18.759c0 3.657-2.964 6.621-6.621 6.621h-18.759c-3.656 0-6.621-2.964-6.621-6.621v-18.759c0-3.656 2.964-6.621 6.621-6.621z"></path>
<path fill="#fff" style="fill: var(--color2, #fff)" d="M24.193 7.807c-2.188-2.188-5.098-3.394-8.193-3.394s-6.004 1.205-8.193 3.393c-2.188 2.188-3.393 5.098-3.393 8.193s1.205 6.004 3.393 8.193c2.188 2.188 5.098 3.393 8.193 3.393s6.004-1.205 8.193-3.393c2.188-2.188 3.393-5.098 3.393-8.193s-1.205-6.004-3.393-8.193zM16 25.776c-5.39 0-9.776-4.385-9.776-9.776s4.385-9.776 9.776-9.776c5.39 0 9.776 4.385 9.776 9.776s-4.385 9.776-9.776 9.776z"></path>
<path fill="#fff" style="fill: var(--color2, #fff)" d="M21.114 17.348c-0.003 0.010-0.33 0.979-1.132 1.919-1.021 1.196-2.324 1.803-3.873 1.803-1.56 0-2.905-0.614-3.998-1.824-0.856-0.949-1.234-1.925-1.237-1.932l-1.696 0.633c0.019 0.051 0.477 1.258 1.539 2.456 1.437 1.62 3.301 2.477 5.391 2.477 2.101 0 3.933-0.863 5.3-2.497 1.010-1.207 1.41-2.424 1.427-2.475l-1.721-0.56z"></path>
<path fill="#fff" style="fill: var(--color2, #fff)" d="M13.466 12.566c0 0.8-0.648 1.448-1.448 1.448s-1.448-0.648-1.448-1.448c0-0.8 0.648-1.448 1.448-1.448s1.448 0.648 1.448 1.448z"></path>
<path fill="#fff" style="fill: var(--color2, #fff)" d="M21.431 12.566c0 0.8-0.648 1.448-1.448 1.448s-1.448-0.648-1.448-1.448c0-0.8 0.648-1.448 1.448-1.448s1.448 0.648 1.448 1.448z"></path>
</symbol>
<symbol id="ic-tickets-29-px" viewBox="0 0 16 16">
<title>ic-tickets-29-px</title>
<path fill="#3e3c63" style="fill: var(--color13, #3e3c63)" d="M3.31 0h9.379c1.828 0 3.31 1.482 3.31 3.31v9.379c0 1.828-1.482 3.31-3.31 3.31h-9.379c-1.828 0-3.31-1.482-3.31-3.31v-9.379c0-1.828 1.482-3.31 3.31-3.31z"></path>
<path fill="#fff" style="fill: var(--color2, #fff)" d="M9.804 2.207l1.501 1.501-0.251 0.252c-0.206 0.205-0.319 0.478-0.319 0.769s0.113 0.564 0.319 0.769c0.205 0.206 0.478 0.319 0.769 0.319s0.564-0.113 0.769-0.319l0.252-0.252 1.501 1.501-7.597 7.597-1.501-1.501 0.251-0.252c0.206-0.205 0.319-0.478 0.319-0.769s-0.113-0.564-0.319-0.769c-0.205-0.206-0.478-0.319-0.769-0.319s-0.564 0.113-0.769 0.319l-0.252 0.252-1.501-1.501 7.597-7.597zM10.304 7.763l-0.503 0.503 0.505 0.505 0.503-0.503-0.505-0.505zM9.294 6.753l-0.503 0.503 0.505 0.505 0.503-0.503-0.505-0.505zM8.285 5.742l-0.503 0.503 0.505 0.505 0.503-0.503-0.505-0.505z"></path>
</symbol>
<symbol id="ic-trip-29-px" viewBox="0 0 16 16">
<title>ic-trip-29-px</title>
<path fill="#f25b94" style="fill: var(--color12, #f25b94)" d="M3.31 0h9.379c1.828 0 3.31 1.482 3.31 3.31v9.379c0 1.828-1.482 3.31-3.31 3.31h-9.379c-1.828 0-3.31-1.482-3.31-3.31v-9.379c0-1.828 1.482-3.31 3.31-3.31z"></path>
<path fill="#fff" style="fill: var(--color2, #fff)" d="M5 11.896h5.999v-6.515h-1.337v-0.582c0-0.511-0.397-0.927-0.886-0.927h-1.553c-0.489 0-0.886 0.415-0.886 0.927v0.582h-1.337v6.515zM6.829 4.8c0-0.228 0.177-0.413 0.394-0.413h1.553c0.217 0 0.394 0.185 0.394 0.413v0.582h-2.342v-0.582zM12.69 6.044v5.19c0 0.366-0.284 0.663-0.633 0.663h-0.565v-6.515h0.565c0.349 0 0.633 0.297 0.633 0.662zM4.509 11.896h-0.565c-0.349 0-0.633-0.297-0.633-0.662v-5.191c0-0.365 0.284-0.663 0.633-0.663h0.565v6.515z"></path>
</symbol>
<symbol id="ic-contact-us-29-Px" viewBox="0 0 16 16">
<title>ic-contact-us-29-Px</title>
<path fill="#e36950" style="fill: var(--color3, #e36950)" d="M3.31 0h9.379c1.828 0 3.31 1.482 3.31 3.31v9.379c0 1.828-1.482 3.31-3.31 3.31h-9.379c-1.828 0-3.31-1.482-3.31-3.31v-9.379c0-1.828 1.482-3.31 3.31-3.31z"></path>
<path fill="#fff" style="fill: var(--color2, #fff)" d="M9.599 11.654l-0.973-0.973c-0.161-0.162-0.423-0.162-0.584 0l-0.583 0.583c-1.195-0.566-2.157-1.528-2.723-2.723l0.583-0.584c0.162-0.161 0.162-0.423 0-0.584l-0.973-0.973c-0.161-0.161-0.422-0.161-0.584 0l-0.777 0.778c-0.645 0.645 0.139 2.474 1.751 4.086 1.611 1.612 3.441 2.396 4.086 1.751l0.778-0.778c0.161-0.162 0.161-0.423 0-0.584zM12.295 3.552c-0.597-0.511-1.388-0.793-2.227-0.793s-1.63 0.281-2.227 0.793c-0.61 0.524-0.947 1.223-0.947 1.971s0.337 1.447 0.947 1.97c0.109 0.094 0.226 0.18 0.347 0.258-0.225 0.338-0.487 0.649-0.782 0.926 0.643-0.054 1.254-0.224 1.81-0.49 0.274 0.066 0.56 0.1 0.852 0.1 0.839 0 1.63-0.282 2.227-0.794 0.611-0.523 0.947-1.223 0.947-1.97s-0.337-1.447-0.947-1.971zM8.634 5.932c-0.226 0-0.409-0.183-0.409-0.409s0.183-0.409 0.409-0.409 0.41 0.183 0.41 0.409-0.184 0.409-0.41 0.409zM10.068 5.932c-0.226 0-0.409-0.183-0.409-0.409s0.183-0.409 0.409-0.409 0.409 0.183 0.409 0.409-0.183 0.409-0.409 0.409zM11.501 5.932c-0.226 0-0.409-0.183-0.409-0.409s0.183-0.409 0.409-0.409 0.409 0.183 0.409 0.409-0.183 0.409-0.409 0.409z"></path>
</symbol>
<symbol id="ic-search-29-Px" viewBox="0 0 16 16">
<title>ic-search-29-Px</title>
<path fill="#5946f0" style="fill: var(--color1, #5946f0)" d="M3.31 0h9.379c1.828 0 3.31 1.482 3.31 3.31v9.379c0 1.828-1.482 3.31-3.31 3.31h-9.379c-1.828 0-3.31-1.482-3.31-3.31v-9.379c0-1.828 1.482-3.31 3.31-3.31z"></path>
<path fill="#fff" style="fill: var(--color2, #fff)" d="M7.137 10.968c0.788 0 1.516-0.24 2.124-0.646l2.199 2.199c0.173 0.173 0.458 0.173 0.638 0l0.428-0.428c0.173-0.173 0.173-0.458 0-0.638l-2.206-2.191c0.406-0.608 0.646-1.336 0.646-2.124 0-2.108-1.718-3.826-3.827-3.826s-3.827 1.718-3.827 3.827c0 2.108 1.71 3.827 3.827 3.827zM7.137 4.815c1.283 0 2.326 1.043 2.326 2.326s-1.043 2.326-2.326 2.326-2.326-1.043-2.326-2.326c0-1.283 1.043-2.326 2.326-2.326z"></path>
</symbol>
</defs>
</svg>
