<svg width="120" height="31" viewBox="0 0 120 31" xmlns="http://www.w3.org/2000/svg">
    <g fill="none" fill-rule="evenodd">
        <g fill="#26B2F6">
            <path d="M23.384 0H3.11A3.11 3.11 0 0 0 0 3.112v20.285a3.119 3.119 0 0 0 3.118 3.12h7.022l2.477 3.518c.156.19.38.285.602.285a.775.775 0 0 0 .598-.28l2.558-3.524h7.01a3.119 3.119 0 0 0 3.117-3.12V3.12A3.119 3.119 0 0 0 23.384 0m0 2.34c.43 0 .78.35.78.78v20.277c0 .43-.35.78-.78.78H15.184l-.7.964-1.245 1.714-1.188-1.686-.698-.993H3.118a.78.78 0 0 1-.78-.78V3.113c0-.426.347-.772.772-.772h20.274"/>
            <path d="M13.147 8.962c-.477 0-.891.068-1.241.203-.35.135-.623.3-.816.494.014.09.037.195.067.315.03.105.052.232.067.382.015.15.022.315.022.494v7.778H8.34V11.02c0-.328-.019-.63-.056-.906a2.195 2.195 0 0 0-.212-.716 1.037 1.037 0 0 0-.47-.459c-.209-.104-.292-.156-.62-.156h-.408v-.672h2.213c.507 0 .906.064 1.197.19.29.127.518.34.682.638.134-.12.294-.242.48-.37.187-.126.41-.238.671-.335a5.82 5.82 0 0 1 .906-.246 6.35 6.35 0 0 1 1.208-.1c1.4 0 2.46.324 3.175.973.715.649 1.073 1.697 1.073 3.143v6.623h-2.907v-6.676c0-1.094-.201-1.866-.603-2.315a1.954 1.954 0 0 0-1.521-.675"/>
        </g>
        <g fill="#2D2D2D">
            <path d="m37.173 9.323.081 1.456c.44-.536.97-.951 1.588-1.246.618-.295 1.305-.442 2.062-.442a5.07 5.07 0 0 1 1.64.25c.49.167.909.436 1.256.81.348.372.616.857.806 1.454.189.598.283 1.324.283 2.177v8.138h-2.815v-8.16c0-.436-.048-.802-.145-1.101a1.794 1.794 0 0 0-.423-.728 1.596 1.596 0 0 0-.689-.402 3.325 3.325 0 0 0-.944-.122c-.58 0-1.083.14-1.512.42-.429.279-.77.655-1.026 1.129v8.964H34.52V9.323h2.653zM51.375 19.883c.325 0 .628-.043.91-.128.282-.086.537-.198.765-.338a2.828 2.828 0 0 0 1.002-1.036v-2.375h-1.518c-1.042 0-1.827.182-2.352.547-.525.365-.788.881-.788 1.548 0 .257.043.493.128.71.085.218.212.406.382.565.17.16.377.284.62.373.243.09.527.134.851.134zm3.094 2.037a2.344 2.344 0 0 1-.191-.524 8.296 8.296 0 0 1-.133-.652 4.983 4.983 0 0 1-.62.547c-.228.171-.48.32-.753.448a4.472 4.472 0 0 1-1.918.414 5.038 5.038 0 0 1-1.726-.285 4.046 4.046 0 0 1-1.35-.792 3.666 3.666 0 0 1-.88-1.193 3.497 3.497 0 0 1-.319-1.49c0-.676.127-1.273.382-1.793s.626-.955 1.113-1.304c.486-.35 1.083-.615 1.79-.798.706-.182 1.511-.273 2.415-.273h1.773v-.827c0-.652-.182-1.174-.545-1.566-.363-.392-.915-.588-1.657-.588-.332 0-.633.045-.903.134-.27.09-.5.21-.69.361a1.6 1.6 0 0 0-.44.541c-.104.21-.156.435-.156.676h-2.815c0-.497.121-.976.364-1.438a3.949 3.949 0 0 1 1.037-1.234c.448-.36.991-.65 1.628-.867.637-.218 1.35-.326 2.138-.326.703 0 1.351.09 1.946.273a4.378 4.378 0 0 1 1.541.815 3.67 3.67 0 0 1 1.008 1.35c.24.54.36 1.17.36 1.892v5.589c0 1.133.157 2.037.474 2.712v.198H54.47zM61.65 9.323l.081 1.456c.44-.536.97-.951 1.588-1.246.618-.295 1.305-.442 2.062-.442a5.07 5.07 0 0 1 1.64.25c.49.167.909.436 1.256.81.348.372.616.857.806 1.454.189.598.283 1.324.283 2.177v8.138h-2.815v-8.16c0-.436-.048-.802-.145-1.101a1.794 1.794 0 0 0-.423-.728 1.596 1.596 0 0 0-.69-.402 3.324 3.324 0 0 0-.943-.122c-.58 0-1.084.14-1.512.42-.429.279-.77.655-1.026 1.129v8.964h-2.815V9.323h2.653zM73.744 15.773c0 .559.052 1.085.156 1.578.105.493.27.925.499 1.298.227.372.519.665.874.879.355.213.788.32 1.298.32.633 0 1.153-.142 1.558-.425.406-.283.728-.658.968-1.124v-5.378a2.878 2.878 0 0 0-.974-1.106c-.41-.272-.919-.408-1.529-.408-.51 0-.944.11-1.303.326-.36.218-.653.512-.88.885-.229.373-.397.81-.505 1.31a7.559 7.559 0 0 0-.162 1.6v.245zm-2.816-.244c0-.955.114-1.828.342-2.62.228-.791.557-1.47.985-2.037a4.497 4.497 0 0 1 1.558-1.316c.61-.31 1.298-.465 2.063-.465.695 0 1.307.12 1.836.36.53.241.99.587 1.385 1.037v-6.45h2.815V21.92h-2.549l-.14-1.304a4.215 4.215 0 0 1-1.43 1.135c-.552.268-1.199.402-1.94.402-.757 0-1.439-.161-2.045-.483a4.626 4.626 0 0 1-1.547-1.333c-.425-.567-.753-1.24-.985-2.02a8.895 8.895 0 0 1-.348-2.544v-.244zM92.256 15.505c0-.55-.044-1.075-.133-1.571a3.966 3.966 0 0 0-.458-1.304 2.504 2.504 0 0 0-.863-.89c-.36-.222-.81-.333-1.35-.333-.656 0-1.193.146-1.61.437-.417.291-.738.68-.962 1.17v5.192c.224.49.547.885.968 1.188.42.302.963.454 1.628.454.517 0 .953-.107 1.309-.32.355-.214.643-.505.863-.873.22-.37.376-.802.47-1.299a8.763 8.763 0 0 0 .138-1.606v-.245zm2.816.245c0 .931-.107 1.789-.32 2.573-.212.784-.523 1.459-.932 2.025-.41.567-.92 1.01-1.53 1.328-.61.318-1.312.477-2.108.477-.764 0-1.429-.138-1.993-.414a4.018 4.018 0 0 1-1.436-1.181l-.14 1.362h-2.548V4.038h2.815v6.496c.394-.465.86-.822 1.396-1.07.537-.25 1.165-.373 1.883-.373.811 0 1.522.157 2.132.471a4.34 4.34 0 0 1 1.535 1.321c.413.567.724 1.244.933 2.032.208.788.313 1.651.313 2.59v.245zM98.94 15.75c0 .566.057 1.102.173 1.606.116.505.297.945.545 1.322.247.376.561.673.944.89.382.218.836.326 1.361.326.517 0 .967-.108 1.35-.326a2.68 2.68 0 0 0 .938-.89c.243-.377.425-.817.545-1.322.12-.504.18-1.04.18-1.606v-.245c0-.559-.06-1.088-.18-1.589-.12-.5-.303-.939-.55-1.315a2.844 2.844 0 0 0-.945-.903c-.382-.225-.836-.337-1.361-.337s-.975.112-1.35.337a2.88 2.88 0 0 0-.932.903 4.026 4.026 0 0 0-.545 1.315c-.116.5-.174 1.03-.174 1.59v.244zm-2.816-.245c0-.915.133-1.764.4-2.543a6.051 6.051 0 0 1 1.146-2.032 5.259 5.259 0 0 1 1.825-1.35c.719-.326 1.533-.49 2.445-.49.919 0 1.742.164 2.468.49a5.233 5.233 0 0 1 1.836 1.35 5.971 5.971 0 0 1 1.141 2.032c.263.78.394 1.628.394 2.543v.245a7.98 7.98 0 0 1-.394 2.55 5.895 5.895 0 0 1-1.141 2.03 5.216 5.216 0 0 1-1.83 1.34c-.723.322-1.54.483-2.45.483-.92 0-1.741-.161-2.463-.483a5.214 5.214 0 0 1-1.83-1.34 5.973 5.973 0 0 1-1.148-2.03 7.877 7.877 0 0 1-.4-2.55v-.245zM113.64 13.468l2.386-4.145h3.128l-3.834 6.206 3.962 6.391h-3.105l-2.503-4.308-2.49 4.308h-3.129l3.963-6.391-3.824-6.206h3.105z"/>
        </g>
    </g>
</svg>
